<?xml version="1.0" encoding="UTF-8"?>
<svg id="Camada_2" xmlns="http://www.w3.org/2000/svg" viewBox="0 0 1553.21 1125.55">
  <defs>
    <style>
      .cls-1 {
        fill: #e7eaa1;
        stroke: #464545;
        stroke-miterlimit: 10;
        stroke-width: 22.05px;
      }

      .cls-2 {
        fill: #464545;
        font-family: RousieRegular, Rousie;
        font-size: 806.4px;
      }
    </style>
  </defs>
  <g id="Camada_2-2" data-name="Camada_2">
    <path class="cls-1" d="M1453.04,26.87l-76.04-14.02c-6.67-1.23-13.31-1.82-19.86-1.82-51.4,0-97.13,36.57-106.89,88.92-4.74,25.4-9.09,50.89-12.81,72.87l-11.96,71.07c-.03.17-23.34,142.77-23.34,142.77,0,.01-3.1,19.1-7.69,47.39-3.11-.27-6.23-.42-9.33-.42-11.41,0-22.75,1.79-33.59,5.29-9.83-26.86-30.17-49.81-58.34-62.22l-6.95-3.06c7.02-8.2,13.99-16.36,20.87-24.42,5.03-5.89,10.07-11.79,15.11-17.68l.28-.33c4.31-5.08,8.65-10.13,12.98-15.19,8.27-9.64,16.82-19.61,25.36-29.93,3.37-4.05,6.75-8.09,10.13-12.14,9.17-10.96,18.66-22.3,28.12-34.17,37.16-46.6,29.93-114.42-16.21-152.15l-52.72-43.1c-20.21-16.53-44.6-24.58-68.84-24.58-31.1,0-61.97,13.26-83.48,38.93-9.72,11.6-18.92,23.11-27.81,34.24-3.33,4.17-6.66,8.34-10.01,12.5-8.44,10.45-16.53,20.83-24.35,30.88-4.06,5.22-8.12,10.43-12.21,15.62-.08.11-9.53,12.19-14.18,18.13-19.01,24.3-38.66,49.42-57.92,74.56-18.33,23.92-25.22,53.1-21.45,80.86-20.29,6.78-40.06,16.22-59.14,28.27-.29.19-.59.37-.88.56-1.9,1.23-3.78,2.48-5.66,3.75,10.87-54.76,21.72-110.58,32.45-166.86,11.22-58.86-27.25-115.72-86.06-127.22l-54.64-10.68c-7.05-1.38-14.07-2.04-20.99-2.04-50.77,0-96.15,35.69-106.59,87.31-17.74,87.75-35.8,174.45-53.68,257.61-3.11,14.41-6.15,28.44-9.16,42.16-9.28-.11-18.16-.68-26.47-1.71-23.92-33.26-54.98-61.57-91.27-82.98-17.17-10.13-36.27-15.1-55.29-15.1-25.44,0-50.72,8.9-70.95,26.28l-44.28,38.03c-16.82,14.45-28.36,33.2-33.98,53.52-5.54,5.25-11.04,10.76-16.51,16.53-.32.34-.64.68-.95,1.02-31.55,34.16-55.23,69.76-72.38,108.82-.17.4-.35.8-.52,1.2-12.26,28.87-19.28,56.5-21.45,84.47-.11,1.45-.2,2.9-.25,4.34-.6,15.88-.42,37.01,6.01,61.19,3.54,14.59,8.75,25.98,11.98,33.05l.55,1.21c1.71,3.77,3.64,7.43,5.77,10.98l.42.71c4.27,7.12,11.15,18.6,22.31,30.66,10.86,12.31,21.44,20.28,27.98,25.21l.18.14c1.66,1.25,3.35,2.45,5.07,3.6,9.37,6.26,19.41,11.81,29.84,16.51.95.43,1.9.84,2.86,1.24,17.31,7.21,35.55,12.21,54.2,14.85.08.01.16.02.23.03,13.11,1.83,25.68,2.72,38.44,2.72,15.17,0,30.1-1.26,45.66-3.87.06,0,.11-.02.17-.03,31.06-5.24,60.13-15.76,86.42-31.27,27.15-15.95,51.66-37.74,70.86-62.98,4.28-5.62,8.31-11.4,12.11-17.33,2.15,1.76,4.37,3.45,6.68,5.06l47.64,33.24c18.73,13.07,40.52,19.59,62.3,19.59s44.73-6.88,63.74-20.61c5.35-3.86,11.1-7.99,17.1-12.21,19.87,28.32,47.74,51.11,79.23,64.63,24.58,10.58,51.05,15.95,78.69,15.95,3.84,0,7.74-.11,11.6-.32.31-.02.63-.04.94-.06,46.96-2.96,82.21-18.85,107.66-32.36.85-.45,1.7-.92,2.54-1.39,13.05-7.38,25.26-15.25,36.27-23.41.18-.14.37-.27.55-.41,10.62-7.97,20.22-16.13,28.39-23.17,1.24-1.07,2.46-2.17,3.65-3.29,2.4-2.26,4.77-4.53,7.1-6.81l1.8.69c1.78.69,3.57,1.32,5.38,1.92,21.84,7.14,44.89,10.76,68.51,10.76,18.42,0,37.29-2.21,56.11-6.58.08-.02.16-.04.24-.06,2.51-.59,5-1.22,7.5-1.88-.33,4.04-.5,8.12-.5,12.23,0,81.44,66.25,147.69,147.69,147.69,40.18,0,77.6-16.08,105.37-45.28,22.65-23.82,37.4-55.5,41.52-89.19,2.39-19.5.85-38.96-4.27-57.24,4.02-8.15,7.08-16.93,9-26.23l58.33-282.34s29.02-141.33,29.02-141.33c.04-.17,14.28-71.24,14.29-71.28,4.59-23,9.44-47.54,14-72.55,10.75-59.06-28.33-115.67-87.37-126.55Z"/>
    <text class="cls-2" transform="translate(195.68 786.86)"><tspan x="0" y="0">olá!</tspan></text>
  </g>
</svg>